<svg xmlns="http://www.w3.org/2000/svg" viewBox="0 0 100 100">
  <defs>
    <linearGradient id="leafGradient" x1="0%" y1="0%" x2="100%" y2="100%">
      <stop offset="0%" style="stop-color:#22c55e;stop-opacity:1" />
      <stop offset="100%" style="stop-color:#16a34a;stop-opacity:1" />
    </linearGradient>
  </defs>
  <path d="M50 20 C30 20, 20 30, 20 50 C20 70, 30 80, 50 80 C70 80, 80 70, 80 50 C80 30, 70 20, 50 20 Z" fill="url(#leafGradient)"/>
  <path d="M50 25 L45 35 L50 45 L55 35 Z" fill="#ffffff" opacity="0.3"/>
  <path d="M35 40 L40 50 L35 60 L30 50 Z" fill="#ffffff" opacity="0.2"/>
  <path d="M65 40 L60 50 L65 60 L70 50 Z" fill="#ffffff" opacity="0.2"/>
  <path d="M50 50 L45 60 L50 70 L55 60 Z" fill="#ffffff" opacity="0.2"/>
</svg>

